<svg width="24" height="24" viewBox="0 0 24 24" fill="none" xmlns="http://www.w3.org/2000/svg">
  <path d="M18 8C18 6.4087 17.3679 4.88258 16.2426 3.75736C15.1174 2.63214 13.5913 2 12 2C10.4087 2 8.88258 2.63214 7.75736 3.75736C6.63214 4.88258 6 6.4087 6 8C6 15 3 17 3 17H21C21 17 18 15 18 8Z" fill="white" fill-opacity="0.65" />
  <path d="M16 19C15.6443 19.6083 15.1338 20.1132 14.5195 20.4642C13.9053 20.8153 13.2089 21 12.5 21C11.7911 21 11.0947 20.8153 10.4805 20.4642C9.86621 20.1132 9.35569 19.6083 9 19" fill="white" fill-opacity="0.65" />
</svg>